<svg width="28" height="28" viewBox="0 0 28 28" fill="none" xmlns="http://www.w3.org/2000/svg">
<path d="M10.6655 25.1832C8.71066 24.6012 6.97064 23.5207 5.59284 22.089C6.10684 21.4799 6.41659 20.6928 6.41659 19.8334C6.41659 17.9004 4.84958 16.3334 2.91659 16.3334C2.79966 16.3334 2.68406 16.3391 2.57008 16.3503C2.4148 15.5911 2.33325 14.8051 2.33325 14C2.33325 12.7805 2.52037 11.6047 2.86746 10.4997C2.88381 10.4999 2.90018 10.5 2.91659 10.5C4.84958 10.5 6.41659 8.93301 6.41659 7.00002C6.41659 6.4451 6.28744 5.92039 6.0576 5.45419C7.40679 4.19967 9.05354 3.26081 10.8803 2.75513C11.4592 3.88974 12.6388 4.6667 13.9999 4.6667C15.361 4.6667 16.5407 3.88974 17.1195 2.75513C18.9463 3.26081 20.593 4.19967 21.9422 5.45419C21.7124 5.92039 21.5833 6.4451 21.5833 7.00002C21.5833 8.93301 23.1503 10.5 25.0833 10.5C25.0996 10.5 25.116 10.4999 25.1324 10.4997C25.4795 11.6047 25.6666 12.7805 25.6666 14C25.6666 14.8051 25.585 15.5911 25.4298 16.3503C25.3158 16.3391 25.2002 16.3334 25.0833 16.3334C23.1503 16.3334 21.5833 17.9004 21.5833 19.8334C21.5833 20.6928 21.893 21.4799 22.407 22.089C21.0292 23.5207 19.2892 24.6012 17.3344 25.1832C16.8832 23.772 15.5609 22.75 13.9999 22.75C12.4389 22.75 11.1166 23.772 10.6655 25.1832Z" stroke="white" stroke-width="2" stroke-linejoin="round"/>
<path d="M14.0001 18.0833C16.2552 18.0833 18.0834 16.2551 18.0834 14C18.0834 11.7448 16.2552 9.91663 14.0001 9.91663C11.7449 9.91663 9.91675 11.7448 9.91675 14C9.91675 16.2551 11.7449 18.0833 14.0001 18.0833Z" stroke="white" stroke-width="2" stroke-linejoin="round"/>
</svg>
